<mxfile host="app.diagrams.net" modified="2022-10-23T20:14:35.250Z" agent="5.0 (Windows NT 10.0; Win64; x64) AppleWebKit/537.36 (KHTML, like Gecko) Chrome/106.0.0.0 Safari/537.36" etag="nImFhcVB8253wS-3p9cu" version="20.5.1" type="github">
  <diagram id="H2VPaapsh_yX2YAZHY69" name="Página-1">
    <mxGraphModel dx="2031" dy="1143" grid="1" gridSize="10" guides="1" tooltips="1" connect="1" arrows="1" fold="1" page="1" pageScale="1" pageWidth="1169" pageHeight="827" math="0" shadow="0">
      <root>
        <mxCell id="0" />
        <mxCell id="1" parent="0" />
        <mxCell id="tDW0GHBdHRXGgH65T0RM-130" value="" style="group" parent="1" vertex="1" connectable="0">
          <mxGeometry x="804.72" y="465.52" width="200" height="273.76" as="geometry" />
        </mxCell>
        <mxCell id="tDW0GHBdHRXGgH65T0RM-42" style="rounded=0;orthogonalLoop=1;jettySize=auto;html=1;endArrow=none;endFill=0;startArrow=oval;startFill=1;strokeWidth=2;targetPerimeterSpacing=6;sourcePerimeterSpacing=5;jumpStyle=none;sketch=0;shadow=0;align=left;" parent="tDW0GHBdHRXGgH65T0RM-130" source="tDW0GHBdHRXGgH65T0RM-43" edge="1">
          <mxGeometry relative="1" as="geometry">
            <mxPoint x="16.649999999999977" y="245.60000000000005" as="targetPoint" />
          </mxGeometry>
        </mxCell>
        <mxCell id="tDW0GHBdHRXGgH65T0RM-43" value="&lt;font face=&quot;Arial&quot;&gt;&lt;span style=&quot;font-size: 13.3333px;&quot;&gt;código de endereço&lt;/span&gt;&lt;/font&gt;" style="text;html=1;strokeColor=none;fillColor=none;align=left;verticalAlign=middle;whiteSpace=wrap;rounded=0;rotation=-90;" parent="tDW0GHBdHRXGgH65T0RM-130" vertex="1">
          <mxGeometry x="-86.25999999999999" y="93.35000000000002" width="206.7" height="20" as="geometry" />
        </mxCell>
        <mxCell id="tDW0GHBdHRXGgH65T0RM-63" style="edgeStyle=none;rounded=0;sketch=0;jumpStyle=none;orthogonalLoop=1;jettySize=auto;html=1;shadow=0;strokeWidth=2;startArrow=oval;startFill=0;endArrow=none;endFill=0;sourcePerimeterSpacing=5;targetPerimeterSpacing=6;" parent="tDW0GHBdHRXGgH65T0RM-130" source="tDW0GHBdHRXGgH65T0RM-45" edge="1">
          <mxGeometry relative="1" as="geometry">
            <mxPoint x="38" y="245.60000000000005" as="targetPoint" />
          </mxGeometry>
        </mxCell>
        <mxCell id="tDW0GHBdHRXGgH65T0RM-45" value="&lt;div style=&quot;text-align: center;&quot;&gt;&lt;span style=&quot;background-color: initial; font-size: 13.3333px;&quot;&gt;&lt;font face=&quot;Arial&quot;&gt;nome da rua&lt;/font&gt;&lt;/span&gt;&lt;/div&gt;" style="text;html=1;strokeColor=none;fillColor=none;align=left;verticalAlign=middle;whiteSpace=wrap;rounded=0;rotation=-90;" parent="tDW0GHBdHRXGgH65T0RM-130" vertex="1">
          <mxGeometry x="-65.35000000000002" y="93.35000000000002" width="206.7" height="20" as="geometry" />
        </mxCell>
        <mxCell id="tDW0GHBdHRXGgH65T0RM-64" style="edgeStyle=none;rounded=0;sketch=0;jumpStyle=none;orthogonalLoop=1;jettySize=auto;html=1;shadow=0;strokeWidth=2;startArrow=oval;startFill=0;endArrow=none;endFill=0;sourcePerimeterSpacing=5;targetPerimeterSpacing=6;" parent="tDW0GHBdHRXGgH65T0RM-130" source="tDW0GHBdHRXGgH65T0RM-47" edge="1">
          <mxGeometry relative="1" as="geometry">
            <mxPoint x="58" y="245.60000000000005" as="targetPoint" />
          </mxGeometry>
        </mxCell>
        <mxCell id="tDW0GHBdHRXGgH65T0RM-47" value="&lt;div style=&quot;text-align: center;&quot;&gt;&lt;span style=&quot;background-color: initial; font-size: 13.3333px;&quot;&gt;&lt;font face=&quot;Arial&quot;&gt;número na rua&lt;/font&gt;&lt;/span&gt;&lt;/div&gt;" style="text;html=1;strokeColor=none;fillColor=none;align=left;verticalAlign=middle;whiteSpace=wrap;rounded=0;rotation=-90;" parent="tDW0GHBdHRXGgH65T0RM-130" vertex="1">
          <mxGeometry x="-45.35000000000002" y="93.35000000000002" width="206.7" height="20" as="geometry" />
        </mxCell>
        <mxCell id="tDW0GHBdHRXGgH65T0RM-65" style="edgeStyle=none;rounded=0;sketch=0;jumpStyle=none;orthogonalLoop=1;jettySize=auto;html=1;shadow=0;strokeWidth=2;startArrow=oval;startFill=0;endArrow=none;endFill=0;sourcePerimeterSpacing=5;targetPerimeterSpacing=6;" parent="tDW0GHBdHRXGgH65T0RM-130" source="tDW0GHBdHRXGgH65T0RM-49" edge="1">
          <mxGeometry relative="1" as="geometry">
            <mxPoint x="78.99999999999989" y="245.60000000000005" as="targetPoint" />
          </mxGeometry>
        </mxCell>
        <mxCell id="tDW0GHBdHRXGgH65T0RM-49" value="&lt;div style=&quot;text-align: center;&quot;&gt;&lt;span style=&quot;background-color: initial; font-size: 13.3333px;&quot;&gt;&lt;font face=&quot;Arial&quot;&gt;complemento&lt;/font&gt;&lt;/span&gt;&lt;/div&gt;" style="text;html=1;strokeColor=none;fillColor=none;align=left;verticalAlign=middle;whiteSpace=wrap;rounded=0;rotation=-90;" parent="tDW0GHBdHRXGgH65T0RM-130" vertex="1">
          <mxGeometry x="-24.350000000000023" y="93.35000000000002" width="206.7" height="20" as="geometry" />
        </mxCell>
        <mxCell id="tDW0GHBdHRXGgH65T0RM-66" style="edgeStyle=none;rounded=0;sketch=0;jumpStyle=none;orthogonalLoop=1;jettySize=auto;html=1;shadow=0;strokeWidth=2;startArrow=oval;startFill=0;endArrow=none;endFill=0;sourcePerimeterSpacing=5;targetPerimeterSpacing=6;" parent="tDW0GHBdHRXGgH65T0RM-130" source="tDW0GHBdHRXGgH65T0RM-51" edge="1">
          <mxGeometry relative="1" as="geometry">
            <mxPoint x="99.99999999999989" y="245.60000000000005" as="targetPoint" />
          </mxGeometry>
        </mxCell>
        <mxCell id="tDW0GHBdHRXGgH65T0RM-51" value="&lt;div style=&quot;text-align: center;&quot;&gt;&lt;span style=&quot;background-color: initial;&quot;&gt;bairro&lt;/span&gt;&lt;/div&gt;" style="text;html=1;strokeColor=none;fillColor=none;align=left;verticalAlign=middle;whiteSpace=wrap;rounded=0;rotation=-90;" parent="tDW0GHBdHRXGgH65T0RM-130" vertex="1">
          <mxGeometry x="-3.3500000000000227" y="93.35000000000002" width="206.7" height="20" as="geometry" />
        </mxCell>
        <mxCell id="tDW0GHBdHRXGgH65T0RM-67" style="edgeStyle=none;rounded=0;sketch=0;jumpStyle=none;orthogonalLoop=1;jettySize=auto;html=1;shadow=0;strokeWidth=2;startArrow=oval;startFill=0;endArrow=none;endFill=0;sourcePerimeterSpacing=5;targetPerimeterSpacing=6;" parent="tDW0GHBdHRXGgH65T0RM-130" source="tDW0GHBdHRXGgH65T0RM-54" edge="1">
          <mxGeometry relative="1" as="geometry">
            <mxPoint x="119.99999999999989" y="245.60000000000005" as="targetPoint" />
          </mxGeometry>
        </mxCell>
        <mxCell id="tDW0GHBdHRXGgH65T0RM-54" value="&lt;div style=&quot;text-align: center;&quot;&gt;&lt;span style=&quot;background-color: initial;&quot;&gt;CEP&lt;/span&gt;&lt;/div&gt;" style="text;html=1;strokeColor=none;fillColor=none;align=left;verticalAlign=middle;whiteSpace=wrap;rounded=0;rotation=-90;" parent="tDW0GHBdHRXGgH65T0RM-130" vertex="1">
          <mxGeometry x="16.649999999999977" y="93.35000000000002" width="206.7" height="20" as="geometry" />
        </mxCell>
        <mxCell id="tDW0GHBdHRXGgH65T0RM-68" style="edgeStyle=none;rounded=0;sketch=0;jumpStyle=none;orthogonalLoop=1;jettySize=auto;html=1;shadow=0;strokeWidth=2;startArrow=oval;startFill=0;endArrow=none;endFill=0;sourcePerimeterSpacing=5;targetPerimeterSpacing=6;" parent="tDW0GHBdHRXGgH65T0RM-130" source="tDW0GHBdHRXGgH65T0RM-56" edge="1">
          <mxGeometry relative="1" as="geometry">
            <mxPoint x="140.9999999999999" y="245.60000000000005" as="targetPoint" />
          </mxGeometry>
        </mxCell>
        <mxCell id="tDW0GHBdHRXGgH65T0RM-56" value="&lt;div style=&quot;text-align: center;&quot;&gt;cidade&lt;br&gt;&lt;/div&gt;" style="text;html=1;strokeColor=none;fillColor=none;align=left;verticalAlign=middle;whiteSpace=wrap;rounded=0;rotation=-90;" parent="tDW0GHBdHRXGgH65T0RM-130" vertex="1">
          <mxGeometry x="37.64999999999998" y="93.35000000000002" width="206.7" height="20" as="geometry" />
        </mxCell>
        <mxCell id="tDW0GHBdHRXGgH65T0RM-69" style="edgeStyle=none;rounded=0;sketch=0;jumpStyle=none;orthogonalLoop=1;jettySize=auto;html=1;shadow=0;strokeWidth=2;startArrow=oval;startFill=0;endArrow=none;endFill=0;sourcePerimeterSpacing=5;targetPerimeterSpacing=6;" parent="tDW0GHBdHRXGgH65T0RM-130" source="tDW0GHBdHRXGgH65T0RM-58" edge="1">
          <mxGeometry relative="1" as="geometry">
            <mxPoint x="160.9999999999999" y="245.60000000000005" as="targetPoint" />
          </mxGeometry>
        </mxCell>
        <mxCell id="tDW0GHBdHRXGgH65T0RM-58" value="&lt;div style=&quot;text-align: center;&quot;&gt;estado&lt;/div&gt;" style="text;html=1;strokeColor=none;fillColor=none;align=left;verticalAlign=middle;whiteSpace=wrap;rounded=0;rotation=-90;" parent="tDW0GHBdHRXGgH65T0RM-130" vertex="1">
          <mxGeometry x="57.64999999999998" y="93.35000000000002" width="206.7" height="20" as="geometry" />
        </mxCell>
        <mxCell id="tDW0GHBdHRXGgH65T0RM-70" style="edgeStyle=none;rounded=0;sketch=0;jumpStyle=none;orthogonalLoop=1;jettySize=auto;html=1;shadow=0;strokeWidth=2;startArrow=oval;startFill=0;endArrow=none;endFill=0;sourcePerimeterSpacing=5;targetPerimeterSpacing=6;" parent="tDW0GHBdHRXGgH65T0RM-130" source="tDW0GHBdHRXGgH65T0RM-60" edge="1">
          <mxGeometry relative="1" as="geometry">
            <mxPoint x="182.0000000000001" y="245.60000000000005" as="targetPoint" />
          </mxGeometry>
        </mxCell>
        <mxCell id="tDW0GHBdHRXGgH65T0RM-60" value="&lt;div style=&quot;text-align: center;&quot;&gt;telefones&lt;/div&gt;" style="text;html=1;strokeColor=none;fillColor=none;align=left;verticalAlign=middle;whiteSpace=wrap;rounded=0;rotation=-90;" parent="tDW0GHBdHRXGgH65T0RM-130" vertex="1">
          <mxGeometry x="78.64999999999998" y="93.35000000000002" width="206.7" height="20" as="geometry" />
        </mxCell>
        <mxCell id="tDW0GHBdHRXGgH65T0RM-52" value="&lt;h1&gt;Endereços&lt;/h1&gt;" style="text;html=1;strokeColor=#6c8ebf;fillColor=#dae8fc;spacing=5;spacingTop=-20;whiteSpace=wrap;overflow=hidden;rounded=0;align=center;" parent="tDW0GHBdHRXGgH65T0RM-130" vertex="1">
          <mxGeometry y="233.76000000000002" width="200" height="40" as="geometry" />
        </mxCell>
        <mxCell id="AmZP4e-YaUcixo_ywfhp-5" style="rounded=0;orthogonalLoop=1;jettySize=auto;html=1;entryX=0;entryY=0.5;entryDx=0;entryDy=0;endArrow=none;endFill=0;strokeWidth=2;jumpSize=0;exitX=0.5;exitY=0;exitDx=0;exitDy=0;" edge="1" parent="1" source="AmZP4e-YaUcixo_ywfhp-3" target="tDW0GHBdHRXGgH65T0RM-52">
          <mxGeometry relative="1" as="geometry">
            <Array as="points">
              <mxPoint x="633" y="720" />
            </Array>
          </mxGeometry>
        </mxCell>
        <mxCell id="tDW0GHBdHRXGgH65T0RM-232" style="edgeStyle=none;rounded=0;sketch=0;jumpStyle=none;orthogonalLoop=1;jettySize=auto;html=1;shadow=0;strokeWidth=2;fontSize=22;startArrow=none;startFill=0;endArrow=none;endFill=0;startSize=6;endSize=0;sourcePerimeterSpacing=-5;targetPerimeterSpacing=0;entryX=0.548;entryY=0.5;entryDx=0;entryDy=0;entryPerimeter=0;" parent="1" source="tDW0GHBdHRXGgH65T0RM-229" target="tDW0GHBdHRXGgH65T0RM-204" edge="1">
          <mxGeometry relative="1" as="geometry">
            <mxPoint x="1872.26" y="1070" as="targetPoint" />
          </mxGeometry>
        </mxCell>
        <mxCell id="tDW0GHBdHRXGgH65T0RM-231" style="edgeStyle=none;rounded=0;sketch=0;jumpStyle=none;orthogonalLoop=1;jettySize=auto;html=1;shadow=0;strokeWidth=2;fontSize=22;startArrow=none;startFill=0;endArrow=none;endFill=0;startSize=6;endSize=5;sourcePerimeterSpacing=-5;targetPerimeterSpacing=6;entryX=0.448;entryY=0.5;entryDx=0;entryDy=0;entryPerimeter=0;" parent="1" source="tDW0GHBdHRXGgH65T0RM-229" target="tDW0GHBdHRXGgH65T0RM-187" edge="1">
          <mxGeometry relative="1" as="geometry">
            <mxPoint x="1642.26" y="1070" as="targetPoint" />
          </mxGeometry>
        </mxCell>
        <mxCell id="tDW0GHBdHRXGgH65T0RM-230" style="edgeStyle=none;rounded=0;sketch=0;jumpStyle=none;orthogonalLoop=1;jettySize=auto;html=1;shadow=0;strokeWidth=2;fontSize=22;startArrow=none;startFill=0;endArrow=none;endFill=0;startSize=6;endSize=0;sourcePerimeterSpacing=-5;targetPerimeterSpacing=0;" parent="1" source="DJ1_3ebVLV-oCw10OSI2-1" edge="1">
          <mxGeometry relative="1" as="geometry">
            <mxPoint x="1772.26" y="900" as="targetPoint" />
          </mxGeometry>
        </mxCell>
        <mxCell id="tDW0GHBdHRXGgH65T0RM-128" value="" style="group" parent="1" vertex="1" connectable="0">
          <mxGeometry x="1717.31" y="561.0025" width="110.00000000000001" height="178.0975" as="geometry" />
        </mxCell>
        <mxCell id="tDW0GHBdHRXGgH65T0RM-16" style="rounded=0;orthogonalLoop=1;jettySize=auto;html=1;endArrow=none;endFill=0;startArrow=oval;startFill=1;strokeWidth=2;targetPerimeterSpacing=6;sourcePerimeterSpacing=5;jumpStyle=none;sketch=0;shadow=0;align=left;" parent="tDW0GHBdHRXGgH65T0RM-128" source="DJ1_3ebVLV-oCw10OSI2-38" edge="1">
          <mxGeometry relative="1" as="geometry">
            <mxPoint x="11.950000000000003" y="141.04749999999999" as="targetPoint" />
          </mxGeometry>
        </mxCell>
        <mxCell id="DJ1_3ebVLV-oCw10OSI2-38" value="&lt;span style=&quot;font-family: Arial; font-size: 13.3333px;&quot;&gt;inscrição&lt;br&gt;&lt;/span&gt;" style="text;html=1;strokeColor=none;fillColor=none;align=left;verticalAlign=middle;whiteSpace=wrap;rounded=0;rotation=-90;" parent="tDW0GHBdHRXGgH65T0RM-128" vertex="1">
          <mxGeometry x="-45.05" y="46.047499999999985" width="112.09499999999998" height="20" as="geometry" />
        </mxCell>
        <mxCell id="tDW0GHBdHRXGgH65T0RM-20" style="edgeStyle=none;rounded=0;sketch=0;jumpStyle=none;orthogonalLoop=1;jettySize=auto;html=1;shadow=0;strokeWidth=2;startArrow=oval;startFill=0;endArrow=none;endFill=0;sourcePerimeterSpacing=5;targetPerimeterSpacing=6;align=left;" parent="tDW0GHBdHRXGgH65T0RM-128" source="DJ1_3ebVLV-oCw10OSI2-39" edge="1">
          <mxGeometry relative="1" as="geometry">
            <mxPoint x="33.95" y="141.04749999999999" as="targetPoint" />
          </mxGeometry>
        </mxCell>
        <mxCell id="DJ1_3ebVLV-oCw10OSI2-39" value="&lt;span style=&quot;font-family: Arial; font-size: 13.3333px;&quot;&gt;localização&lt;/span&gt;&lt;span style=&quot;font-family: Arial; font-size: 13.3333px;&quot;&gt;&lt;br&gt;&lt;/span&gt;" style="text;html=1;strokeColor=none;fillColor=none;align=left;verticalAlign=middle;whiteSpace=wrap;rounded=0;rotation=-90;" parent="tDW0GHBdHRXGgH65T0RM-128" vertex="1">
          <mxGeometry x="-22.049999999999997" y="46.047499999999985" width="112.09499999999998" height="20" as="geometry" />
        </mxCell>
        <mxCell id="tDW0GHBdHRXGgH65T0RM-21" style="edgeStyle=none;rounded=0;sketch=0;jumpStyle=none;orthogonalLoop=1;jettySize=auto;html=1;shadow=0;strokeWidth=2;startArrow=oval;startFill=0;endArrow=none;endFill=0;sourcePerimeterSpacing=5;targetPerimeterSpacing=6;align=left;" parent="tDW0GHBdHRXGgH65T0RM-128" source="DJ1_3ebVLV-oCw10OSI2-40" edge="1">
          <mxGeometry relative="1" as="geometry">
            <mxPoint x="54.95" y="141.04749999999999" as="targetPoint" />
          </mxGeometry>
        </mxCell>
        <mxCell id="DJ1_3ebVLV-oCw10OSI2-40" value="&lt;span style=&quot;font-family: Arial; font-size: 13.3333px;&quot;&gt;área total&lt;/span&gt;&lt;span style=&quot;font-family: Arial; font-size: 13.3333px;&quot;&gt;&lt;br&gt;&lt;/span&gt;" style="text;html=1;strokeColor=none;fillColor=none;align=left;verticalAlign=middle;whiteSpace=wrap;rounded=0;rotation=-90;" parent="tDW0GHBdHRXGgH65T0RM-128" vertex="1">
          <mxGeometry x="-1.0499999999999972" y="46.047499999999985" width="112.09499999999998" height="20" as="geometry" />
        </mxCell>
        <mxCell id="tDW0GHBdHRXGgH65T0RM-22" style="edgeStyle=none;rounded=0;sketch=0;jumpStyle=none;orthogonalLoop=1;jettySize=auto;html=1;shadow=0;strokeWidth=2;startArrow=oval;startFill=0;endArrow=none;endFill=0;sourcePerimeterSpacing=5;targetPerimeterSpacing=6;align=left;" parent="tDW0GHBdHRXGgH65T0RM-128" source="DJ1_3ebVLV-oCw10OSI2-41" edge="1">
          <mxGeometry relative="1" as="geometry">
            <mxPoint x="76.95" y="141.04749999999999" as="targetPoint" />
          </mxGeometry>
        </mxCell>
        <mxCell id="DJ1_3ebVLV-oCw10OSI2-41" value="&lt;span style=&quot;font-family: Arial; font-size: 13.3333px;&quot;&gt;preço de venda&lt;/span&gt;&lt;span style=&quot;font-family: Arial; font-size: 13.3333px;&quot;&gt;&lt;br&gt;&lt;/span&gt;" style="text;html=1;strokeColor=none;fillColor=none;align=left;verticalAlign=middle;whiteSpace=wrap;rounded=0;rotation=-90;" parent="tDW0GHBdHRXGgH65T0RM-128" vertex="1">
          <mxGeometry x="20.950000000000003" y="46.047499999999985" width="112.09499999999998" height="20" as="geometry" />
        </mxCell>
        <mxCell id="tDW0GHBdHRXGgH65T0RM-23" style="edgeStyle=none;rounded=0;sketch=0;jumpStyle=none;orthogonalLoop=1;jettySize=auto;html=1;shadow=0;strokeWidth=2;startArrow=oval;startFill=0;endArrow=none;endFill=0;sourcePerimeterSpacing=5;targetPerimeterSpacing=6;align=left;" parent="tDW0GHBdHRXGgH65T0RM-128" source="DJ1_3ebVLV-oCw10OSI2-42" edge="1">
          <mxGeometry relative="1" as="geometry">
            <mxPoint x="97.95" y="141.04749999999999" as="targetPoint" />
          </mxGeometry>
        </mxCell>
        <mxCell id="DJ1_3ebVLV-oCw10OSI2-42" value="&lt;span style=&quot;font-family: Arial; font-size: 13.3333px;&quot;&gt;preço de aluguel&lt;/span&gt;&lt;span style=&quot;font-family: Arial; font-size: 13.3333px;&quot;&gt;&lt;br&gt;&lt;/span&gt;" style="text;html=1;strokeColor=none;fillColor=none;align=left;verticalAlign=middle;whiteSpace=wrap;rounded=0;rotation=-90;" parent="tDW0GHBdHRXGgH65T0RM-128" vertex="1">
          <mxGeometry x="41.95" y="46.047499999999985" width="112.09499999999998" height="20" as="geometry" />
        </mxCell>
        <mxCell id="DJ1_3ebVLV-oCw10OSI2-1" value="&lt;h1&gt;Imóveis&lt;/h1&gt;" style="text;html=1;strokeColor=#6c8ebf;fillColor=#dae8fc;spacing=5;spacingTop=-20;whiteSpace=wrap;overflow=hidden;rounded=0;align=center;" parent="tDW0GHBdHRXGgH65T0RM-128" vertex="1">
          <mxGeometry y="138.0975" width="110" height="40" as="geometry" />
        </mxCell>
        <mxCell id="tDW0GHBdHRXGgH65T0RM-201" value="" style="group" parent="1" vertex="1" connectable="0">
          <mxGeometry x="1522.26" y="1090" width="201.05" height="220" as="geometry" />
        </mxCell>
        <mxCell id="tDW0GHBdHRXGgH65T0RM-197" style="edgeStyle=none;rounded=0;sketch=0;jumpStyle=none;orthogonalLoop=1;jettySize=auto;html=1;shadow=0;strokeWidth=2;fontSize=22;startArrow=oval;startFill=1;endArrow=none;endFill=0;startSize=6;endSize=0;sourcePerimeterSpacing=3;targetPerimeterSpacing=0;" parent="tDW0GHBdHRXGgH65T0RM-201" source="tDW0GHBdHRXGgH65T0RM-191" edge="1">
          <mxGeometry relative="1" as="geometry">
            <mxPoint x="70" y="40" as="targetPoint" />
          </mxGeometry>
        </mxCell>
        <mxCell id="tDW0GHBdHRXGgH65T0RM-189" value="&lt;font face=&quot;Arial&quot;&gt;&lt;span style=&quot;font-size: 13.3333px;&quot;&gt;Tipo&lt;/span&gt;&lt;/font&gt;" style="text;html=1;strokeColor=none;fillColor=none;align=right;verticalAlign=middle;whiteSpace=wrap;rounded=0;rotation=-90;" parent="tDW0GHBdHRXGgH65T0RM-201" vertex="1">
          <mxGeometry x="10.049999999999955" y="130" width="160" height="20" as="geometry" />
        </mxCell>
        <mxCell id="tDW0GHBdHRXGgH65T0RM-198" style="edgeStyle=none;rounded=0;sketch=0;jumpStyle=none;orthogonalLoop=1;jettySize=auto;html=1;entryX=0.448;entryY=0.973;entryDx=0;entryDy=0;entryPerimeter=0;shadow=0;strokeWidth=2;fontSize=22;startArrow=oval;startFill=0;endArrow=none;endFill=0;startSize=6;endSize=0;sourcePerimeterSpacing=3;targetPerimeterSpacing=0;" parent="tDW0GHBdHRXGgH65T0RM-201" source="tDW0GHBdHRXGgH65T0RM-189" target="tDW0GHBdHRXGgH65T0RM-187" edge="1">
          <mxGeometry relative="1" as="geometry" />
        </mxCell>
        <mxCell id="tDW0GHBdHRXGgH65T0RM-190" value="&lt;div style=&quot;&quot;&gt;&lt;span style=&quot;background-color: initial; font-size: 13.3333px;&quot;&gt;&lt;font face=&quot;Arial&quot;&gt;Taxa de ITR&lt;/font&gt;&lt;/span&gt;&lt;/div&gt;" style="text;html=1;strokeColor=none;fillColor=none;align=right;verticalAlign=middle;whiteSpace=wrap;rounded=0;rotation=-90;" parent="tDW0GHBdHRXGgH65T0RM-201" vertex="1">
          <mxGeometry x="31.049999999999955" y="130" width="160" height="20" as="geometry" />
        </mxCell>
        <mxCell id="tDW0GHBdHRXGgH65T0RM-199" style="edgeStyle=none;rounded=0;sketch=0;jumpStyle=none;orthogonalLoop=1;jettySize=auto;html=1;entryX=0.554;entryY=0.976;entryDx=0;entryDy=0;entryPerimeter=0;shadow=0;strokeWidth=2;fontSize=22;startArrow=oval;startFill=0;endArrow=none;endFill=0;startSize=6;endSize=0;sourcePerimeterSpacing=3;targetPerimeterSpacing=0;" parent="tDW0GHBdHRXGgH65T0RM-201" source="tDW0GHBdHRXGgH65T0RM-190" target="tDW0GHBdHRXGgH65T0RM-187" edge="1">
          <mxGeometry relative="1" as="geometry" />
        </mxCell>
        <mxCell id="tDW0GHBdHRXGgH65T0RM-191" value="&lt;font face=&quot;Arial&quot;&gt;&lt;span style=&quot;font-size: 13.3333px;&quot;&gt;Inscrição&lt;/span&gt;&lt;/font&gt;" style="text;html=1;strokeColor=none;fillColor=none;align=right;verticalAlign=middle;whiteSpace=wrap;rounded=0;rotation=-90;" parent="tDW0GHBdHRXGgH65T0RM-201" vertex="1">
          <mxGeometry x="-10" y="130" width="160" height="20" as="geometry" />
        </mxCell>
        <mxCell id="tDW0GHBdHRXGgH65T0RM-195" value="&lt;div style=&quot;&quot;&gt;&lt;span style=&quot;background-color: initial; font-size: 13.3333px;&quot;&gt;&lt;font face=&quot;Arial&quot;&gt;Lista de Melhorias&lt;/font&gt;&lt;/span&gt;&lt;/div&gt;" style="text;html=1;strokeColor=none;fillColor=none;align=right;verticalAlign=middle;whiteSpace=wrap;rounded=0;rotation=-90;" parent="tDW0GHBdHRXGgH65T0RM-201" vertex="1">
          <mxGeometry x="51.049999999999955" y="130" width="160" height="20" as="geometry" />
        </mxCell>
        <mxCell id="tDW0GHBdHRXGgH65T0RM-200" style="edgeStyle=none;rounded=0;sketch=0;jumpStyle=none;orthogonalLoop=1;jettySize=auto;html=1;shadow=0;strokeWidth=2;fontSize=22;startArrow=oval;startFill=0;endArrow=none;endFill=0;startSize=6;endSize=0;sourcePerimeterSpacing=3;targetPerimeterSpacing=0;entryX=0.652;entryY=0.984;entryDx=0;entryDy=0;entryPerimeter=0;" parent="tDW0GHBdHRXGgH65T0RM-201" source="tDW0GHBdHRXGgH65T0RM-195" target="tDW0GHBdHRXGgH65T0RM-187" edge="1">
          <mxGeometry relative="1" as="geometry">
            <mxPoint x="131" y="40" as="targetPoint" />
          </mxGeometry>
        </mxCell>
        <mxCell id="tDW0GHBdHRXGgH65T0RM-187" value="&lt;h1&gt;Imóveis Rurais&lt;/h1&gt;" style="text;html=1;strokeColor=#9673a6;fillColor=#e1d5e7;spacing=5;spacingTop=-20;whiteSpace=wrap;overflow=hidden;rounded=0;align=center;" parent="tDW0GHBdHRXGgH65T0RM-201" vertex="1">
          <mxGeometry width="201.05" height="40" as="geometry" />
        </mxCell>
        <mxCell id="tDW0GHBdHRXGgH65T0RM-226" value="" style="group" parent="1" vertex="1" connectable="0">
          <mxGeometry x="1787.26" y="1090" width="210" height="300" as="geometry" />
        </mxCell>
        <mxCell id="tDW0GHBdHRXGgH65T0RM-218" value="" style="group;rotation=-90;" parent="tDW0GHBdHRXGgH65T0RM-226" vertex="1" connectable="0">
          <mxGeometry x="-15" y="120" width="240" height="120" as="geometry" />
        </mxCell>
        <mxCell id="tDW0GHBdHRXGgH65T0RM-205" value="&lt;font face=&quot;Arial&quot;&gt;&lt;span style=&quot;font-size: 13.3333px;&quot;&gt;Código do Imóvel&lt;/span&gt;&lt;/font&gt;" style="text;html=1;strokeColor=none;fillColor=none;align=right;verticalAlign=middle;whiteSpace=wrap;rounded=0;rotation=-90;" parent="tDW0GHBdHRXGgH65T0RM-218" vertex="1">
          <mxGeometry x="-30" y="50" width="240" height="20" as="geometry" />
        </mxCell>
        <mxCell id="tDW0GHBdHRXGgH65T0RM-207" value="&lt;div style=&quot;&quot;&gt;&lt;font face=&quot;Arial&quot;&gt;&lt;span style=&quot;font-size: 13.3333px;&quot;&gt;Código Municipal de Contribuinte&lt;/span&gt;&lt;/font&gt;&lt;br&gt;&lt;/div&gt;" style="text;html=1;strokeColor=none;fillColor=none;align=right;verticalAlign=middle;whiteSpace=wrap;rounded=0;rotation=-90;" parent="tDW0GHBdHRXGgH65T0RM-218" vertex="1">
          <mxGeometry x="-10" y="50" width="240" height="20" as="geometry" />
        </mxCell>
        <mxCell id="tDW0GHBdHRXGgH65T0RM-209" value="&lt;font face=&quot;Arial&quot;&gt;&lt;span style=&quot;font-size: 13.3333px;&quot;&gt;Inscrição&lt;/span&gt;&lt;/font&gt;" style="text;html=1;strokeColor=none;fillColor=none;align=right;verticalAlign=middle;whiteSpace=wrap;rounded=0;rotation=-90;" parent="tDW0GHBdHRXGgH65T0RM-218" vertex="1">
          <mxGeometry x="-50" y="50" width="240" height="20" as="geometry" />
        </mxCell>
        <mxCell id="tDW0GHBdHRXGgH65T0RM-210" value="&lt;div style=&quot;&quot;&gt;&lt;span style=&quot;background-color: initial; font-size: 13.3333px;&quot;&gt;&lt;font face=&quot;Arial&quot;&gt;Quadra&lt;/font&gt;&lt;/span&gt;&lt;/div&gt;" style="text;html=1;strokeColor=none;fillColor=none;align=right;verticalAlign=middle;whiteSpace=wrap;rounded=0;rotation=-90;" parent="tDW0GHBdHRXGgH65T0RM-218" vertex="1">
          <mxGeometry x="10" y="50" width="240" height="20" as="geometry" />
        </mxCell>
        <mxCell id="tDW0GHBdHRXGgH65T0RM-216" value="&lt;span id=&quot;docs-internal-guid-2ba1474c-7fff-8bc8-c969-615cef007e99&quot;&gt;&lt;span style=&quot;font-size: 10pt; font-family: Arial; background-color: transparent; font-variant-numeric: normal; font-variant-east-asian: normal; vertical-align: baseline;&quot;&gt;Número de Ordem na&amp;nbsp;&lt;span style=&quot;background-color: initial; font-size: 13.3333px;&quot;&gt;Quadra&lt;/span&gt;&lt;br&gt;&lt;/span&gt;&lt;/span&gt;" style="text;html=1;strokeColor=none;fillColor=none;align=right;verticalAlign=middle;whiteSpace=wrap;rounded=0;rotation=-90;" parent="tDW0GHBdHRXGgH65T0RM-218" vertex="1">
          <mxGeometry x="30" y="50" width="240" height="20" as="geometry" />
        </mxCell>
        <mxCell id="tDW0GHBdHRXGgH65T0RM-217" value="&lt;span id=&quot;docs-internal-guid-2ba1474c-7fff-8bc8-c969-615cef007e99&quot;&gt;&lt;span style=&quot;font-size: 10pt; font-family: Arial; background-color: transparent; font-variant-numeric: normal; font-variant-east-asian: normal; vertical-align: baseline;&quot;&gt;Taxa de IPTU&lt;br&gt;&lt;/span&gt;&lt;/span&gt;" style="text;html=1;strokeColor=none;fillColor=none;align=right;verticalAlign=middle;whiteSpace=wrap;rounded=0;rotation=-90;" parent="tDW0GHBdHRXGgH65T0RM-218" vertex="1">
          <mxGeometry x="50" y="50" width="240" height="20" as="geometry" />
        </mxCell>
        <mxCell id="tDW0GHBdHRXGgH65T0RM-220" style="edgeStyle=none;rounded=0;sketch=0;jumpStyle=none;orthogonalLoop=1;jettySize=auto;html=1;shadow=0;strokeWidth=2;fontSize=22;startArrow=oval;startFill=1;endArrow=none;endFill=0;startSize=6;endSize=0;sourcePerimeterSpacing=3;targetPerimeterSpacing=0;" parent="tDW0GHBdHRXGgH65T0RM-226" source="tDW0GHBdHRXGgH65T0RM-209" edge="1">
          <mxGeometry relative="1" as="geometry">
            <mxPoint x="55" y="40" as="targetPoint" />
          </mxGeometry>
        </mxCell>
        <mxCell id="tDW0GHBdHRXGgH65T0RM-221" style="edgeStyle=none;rounded=0;sketch=0;jumpStyle=none;orthogonalLoop=1;jettySize=auto;html=1;entryX=0.357;entryY=1;entryDx=0;entryDy=0;entryPerimeter=0;shadow=0;strokeWidth=2;fontSize=22;startArrow=oval;startFill=0;endArrow=none;endFill=0;startSize=6;endSize=0;sourcePerimeterSpacing=3;targetPerimeterSpacing=0;" parent="tDW0GHBdHRXGgH65T0RM-226" source="tDW0GHBdHRXGgH65T0RM-205" target="tDW0GHBdHRXGgH65T0RM-204" edge="1">
          <mxGeometry relative="1" as="geometry" />
        </mxCell>
        <mxCell id="tDW0GHBdHRXGgH65T0RM-222" style="edgeStyle=none;rounded=0;sketch=0;jumpStyle=none;orthogonalLoop=1;jettySize=auto;html=1;shadow=0;strokeWidth=2;fontSize=22;startArrow=oval;startFill=0;endArrow=none;endFill=0;startSize=6;endSize=0;sourcePerimeterSpacing=3;targetPerimeterSpacing=0;" parent="tDW0GHBdHRXGgH65T0RM-226" source="tDW0GHBdHRXGgH65T0RM-207" edge="1">
          <mxGeometry relative="1" as="geometry">
            <mxPoint x="95" y="40" as="targetPoint" />
          </mxGeometry>
        </mxCell>
        <mxCell id="tDW0GHBdHRXGgH65T0RM-223" style="edgeStyle=none;rounded=0;sketch=0;jumpStyle=none;orthogonalLoop=1;jettySize=auto;html=1;entryX=0.549;entryY=0.988;entryDx=0;entryDy=0;entryPerimeter=0;shadow=0;strokeWidth=2;fontSize=22;startArrow=oval;startFill=0;endArrow=none;endFill=0;startSize=6;endSize=0;sourcePerimeterSpacing=3;targetPerimeterSpacing=0;" parent="tDW0GHBdHRXGgH65T0RM-226" source="tDW0GHBdHRXGgH65T0RM-210" target="tDW0GHBdHRXGgH65T0RM-204" edge="1">
          <mxGeometry relative="1" as="geometry" />
        </mxCell>
        <mxCell id="tDW0GHBdHRXGgH65T0RM-224" style="edgeStyle=none;rounded=0;sketch=0;jumpStyle=none;orthogonalLoop=1;jettySize=auto;html=1;entryX=0.642;entryY=0.993;entryDx=0;entryDy=0;entryPerimeter=0;shadow=0;strokeWidth=2;fontSize=22;startArrow=oval;startFill=0;endArrow=none;endFill=0;startSize=6;endSize=0;sourcePerimeterSpacing=3;targetPerimeterSpacing=0;" parent="tDW0GHBdHRXGgH65T0RM-226" source="tDW0GHBdHRXGgH65T0RM-216" target="tDW0GHBdHRXGgH65T0RM-204" edge="1">
          <mxGeometry relative="1" as="geometry" />
        </mxCell>
        <mxCell id="tDW0GHBdHRXGgH65T0RM-225" style="edgeStyle=none;rounded=0;sketch=0;jumpStyle=none;orthogonalLoop=1;jettySize=auto;html=1;entryX=0.739;entryY=0.986;entryDx=0;entryDy=0;entryPerimeter=0;shadow=0;strokeWidth=2;fontSize=22;startArrow=oval;startFill=0;endArrow=none;endFill=0;startSize=6;endSize=0;sourcePerimeterSpacing=3;targetPerimeterSpacing=0;" parent="tDW0GHBdHRXGgH65T0RM-226" source="tDW0GHBdHRXGgH65T0RM-217" target="tDW0GHBdHRXGgH65T0RM-204" edge="1">
          <mxGeometry relative="1" as="geometry" />
        </mxCell>
        <mxCell id="tDW0GHBdHRXGgH65T0RM-204" value="&lt;h1&gt;Imóveis Urbanos&lt;/h1&gt;" style="text;html=1;strokeColor=#9673a6;fillColor=#e1d5e7;spacing=5;spacingTop=-20;whiteSpace=wrap;overflow=hidden;rounded=0;align=center;" parent="tDW0GHBdHRXGgH65T0RM-226" vertex="1">
          <mxGeometry width="210" height="40" as="geometry" />
        </mxCell>
        <mxCell id="tDW0GHBdHRXGgH65T0RM-227" value="" style="group" parent="1" vertex="1" connectable="0">
          <mxGeometry x="1732.31" y="890" width="80" height="60" as="geometry" />
        </mxCell>
        <mxCell id="tDW0GHBdHRXGgH65T0RM-228" value="" style="triangle;whiteSpace=wrap;html=1;rotation=-90;" parent="tDW0GHBdHRXGgH65T0RM-227" vertex="1">
          <mxGeometry x="10" y="-10" width="60" height="80" as="geometry" />
        </mxCell>
        <mxCell id="tDW0GHBdHRXGgH65T0RM-229" value="D" style="text;html=1;align=center;verticalAlign=middle;resizable=0;points=[];autosize=1;strokeColor=none;fillColor=none;fontSize=22;" parent="tDW0GHBdHRXGgH65T0RM-227" vertex="1">
          <mxGeometry x="20" y="20" width="40" height="40" as="geometry" />
        </mxCell>
        <mxCell id="AmZP4e-YaUcixo_ywfhp-10" value="Imóvel possui Edificação" style="rhombus;whiteSpace=wrap;html=1;fillColor=#ffe6cc;strokeColor=#d79b00;" vertex="1" parent="1">
          <mxGeometry x="1490" y="534" width="120" height="120" as="geometry" />
        </mxCell>
        <mxCell id="AmZP4e-YaUcixo_ywfhp-11" style="rounded=0;orthogonalLoop=1;jettySize=auto;html=1;entryX=0.5;entryY=1;entryDx=0;entryDy=0;strokeWidth=2;endArrow=none;endFill=0;startSize=6;endSize=6;sourcePerimeterSpacing=0;targetPerimeterSpacing=0;exitX=0;exitY=0.25;exitDx=0;exitDy=0;" edge="1" parent="1" source="DJ1_3ebVLV-oCw10OSI2-1" target="AmZP4e-YaUcixo_ywfhp-10">
          <mxGeometry relative="1" as="geometry">
            <Array as="points">
              <mxPoint x="1550" y="710" />
            </Array>
          </mxGeometry>
        </mxCell>
        <mxCell id="tDW0GHBdHRXGgH65T0RM-183" style="edgeStyle=none;rounded=0;sketch=0;jumpStyle=none;orthogonalLoop=1;jettySize=auto;html=1;entryX=0.5;entryY=0;entryDx=0;entryDy=0;shadow=0;strokeWidth=2;fontSize=22;startArrow=none;startFill=0;endArrow=none;endFill=0;startSize=0;endSize=0;sourcePerimeterSpacing=0;targetPerimeterSpacing=0;" parent="1" source="tDW0GHBdHRXGgH65T0RM-148" target="tDW0GHBdHRXGgH65T0RM-138" edge="1">
          <mxGeometry relative="1" as="geometry" />
        </mxCell>
        <mxCell id="tDW0GHBdHRXGgH65T0RM-151" style="edgeStyle=none;rounded=0;sketch=0;jumpStyle=none;orthogonalLoop=1;jettySize=auto;html=1;shadow=0;strokeWidth=2;fontSize=22;startArrow=none;startFill=0;endArrow=none;endFill=0;sourcePerimeterSpacing=-1;targetPerimeterSpacing=11;startSize=0;endSize=9;" parent="1" source="tDW0GHBdHRXGgH65T0RM-96" target="tDW0GHBdHRXGgH65T0RM-148" edge="1">
          <mxGeometry relative="1" as="geometry" />
        </mxCell>
        <mxCell id="tDW0GHBdHRXGgH65T0RM-184" style="edgeStyle=none;rounded=0;sketch=0;jumpStyle=none;orthogonalLoop=1;jettySize=auto;html=1;shadow=0;strokeWidth=2;fontSize=22;startArrow=none;startFill=0;endArrow=none;endFill=0;startSize=0;endSize=0;sourcePerimeterSpacing=0;targetPerimeterSpacing=0;entryX=0.598;entryY=0.5;entryDx=0;entryDy=0;entryPerimeter=0;" parent="1" source="tDW0GHBdHRXGgH65T0RM-148" target="tDW0GHBdHRXGgH65T0RM-143" edge="1">
          <mxGeometry relative="1" as="geometry">
            <mxPoint x="826.8299999999999" y="1210" as="targetPoint" />
          </mxGeometry>
        </mxCell>
        <mxCell id="tDW0GHBdHRXGgH65T0RM-182" style="edgeStyle=none;rounded=0;sketch=0;jumpStyle=none;orthogonalLoop=1;jettySize=auto;html=1;entryX=0.462;entryY=0.25;entryDx=0;entryDy=0;shadow=0;strokeWidth=2;fontSize=22;startArrow=none;startFill=0;endArrow=none;endFill=0;startSize=0;endSize=0;sourcePerimeterSpacing=0;targetPerimeterSpacing=0;entryPerimeter=0;" parent="1" source="tDW0GHBdHRXGgH65T0RM-148" target="tDW0GHBdHRXGgH65T0RM-121" edge="1">
          <mxGeometry relative="1" as="geometry" />
        </mxCell>
        <mxCell id="tDW0GHBdHRXGgH65T0RM-131" value="" style="group" parent="1" vertex="1" connectable="0">
          <mxGeometry x="846.8299999999999" y="860" width="120" height="100" as="geometry" />
        </mxCell>
        <mxCell id="tDW0GHBdHRXGgH65T0RM-78" style="rounded=0;orthogonalLoop=1;jettySize=auto;html=1;endArrow=none;endFill=0;startArrow=oval;startFill=1;strokeWidth=2;targetPerimeterSpacing=6;sourcePerimeterSpacing=5;jumpStyle=none;sketch=0;shadow=0;align=left;" parent="tDW0GHBdHRXGgH65T0RM-131" source="tDW0GHBdHRXGgH65T0RM-79" edge="1">
          <mxGeometry relative="1" as="geometry">
            <mxPoint x="33.65454545454548" y="71.81140942952855" as="targetPoint" />
          </mxGeometry>
        </mxCell>
        <mxCell id="tDW0GHBdHRXGgH65T0RM-79" value="&lt;font face=&quot;Arial&quot;&gt;&lt;span style=&quot;font-size: 13.3333px;&quot;&gt;CPF&lt;/span&gt;&lt;/font&gt;" style="text;html=1;strokeColor=none;fillColor=none;align=left;verticalAlign=middle;whiteSpace=wrap;rounded=0;rotation=-90;" parent="tDW0GHBdHRXGgH65T0RM-131" vertex="1">
          <mxGeometry x="16.178181818181862" y="6.4546772661366285" width="35.90181818181818" height="19.999000049997523" as="geometry" />
        </mxCell>
        <mxCell id="tDW0GHBdHRXGgH65T0RM-122" style="rounded=0;orthogonalLoop=1;jettySize=auto;html=1;endArrow=none;endFill=0;startArrow=oval;startFill=0;strokeWidth=2;targetPerimeterSpacing=6;sourcePerimeterSpacing=5;jumpStyle=none;sketch=0;shadow=0;align=left;" parent="tDW0GHBdHRXGgH65T0RM-131" source="tDW0GHBdHRXGgH65T0RM-123" edge="1">
          <mxGeometry relative="1" as="geometry">
            <mxPoint x="59.53090909090914" y="71.81140942952855" as="targetPoint" />
          </mxGeometry>
        </mxCell>
        <mxCell id="tDW0GHBdHRXGgH65T0RM-123" value="&lt;font face=&quot;Arial&quot;&gt;&lt;span style=&quot;font-size: 13.3333px;&quot;&gt;RG&lt;/span&gt;&lt;/font&gt;" style="text;html=1;strokeColor=none;fillColor=none;align=left;verticalAlign=middle;whiteSpace=wrap;rounded=0;rotation=-90;" parent="tDW0GHBdHRXGgH65T0RM-131" vertex="1">
          <mxGeometry x="42.054545454545526" y="6.4546772661366285" width="35.90181818181818" height="19.999000049997523" as="geometry" />
        </mxCell>
        <mxCell id="tDW0GHBdHRXGgH65T0RM-124" style="rounded=0;orthogonalLoop=1;jettySize=auto;html=1;endArrow=none;endFill=0;startArrow=oval;startFill=0;strokeWidth=2;targetPerimeterSpacing=6;sourcePerimeterSpacing=5;jumpStyle=none;sketch=0;shadow=0;align=left;" parent="tDW0GHBdHRXGgH65T0RM-131" source="tDW0GHBdHRXGgH65T0RM-125" edge="1">
          <mxGeometry relative="1" as="geometry">
            <mxPoint x="82.44000000000005" y="71.81140942952855" as="targetPoint" />
          </mxGeometry>
        </mxCell>
        <mxCell id="tDW0GHBdHRXGgH65T0RM-125" value="&lt;font face=&quot;Arial&quot;&gt;&lt;span style=&quot;font-size: 13.3333px;&quot;&gt;Nome&lt;/span&gt;&lt;/font&gt;" style="text;html=1;strokeColor=none;fillColor=none;align=left;verticalAlign=middle;whiteSpace=wrap;rounded=0;rotation=-90;" parent="tDW0GHBdHRXGgH65T0RM-131" vertex="1">
          <mxGeometry x="64.96363636363644" y="6.4546772661366285" width="35.90181818181818" height="19.999000049997523" as="geometry" />
        </mxCell>
        <mxCell id="tDW0GHBdHRXGgH65T0RM-96" value="&lt;h1&gt;Pessoas&lt;/h1&gt;" style="text;html=1;strokeColor=#6c8ebf;fillColor=#dae8fc;spacing=5;spacingTop=-20;whiteSpace=wrap;overflow=hidden;rounded=0;align=center;" parent="tDW0GHBdHRXGgH65T0RM-131" vertex="1">
          <mxGeometry y="60.001999900004954" width="119.99999999999999" height="39.998000099995046" as="geometry" />
        </mxCell>
        <mxCell id="tDW0GHBdHRXGgH65T0RM-150" value="" style="group" parent="1" vertex="1" connectable="0">
          <mxGeometry x="866.8299999999999" y="1010" width="80" height="60" as="geometry" />
        </mxCell>
        <mxCell id="tDW0GHBdHRXGgH65T0RM-147" value="" style="triangle;whiteSpace=wrap;html=1;rotation=-90;" parent="tDW0GHBdHRXGgH65T0RM-150" vertex="1">
          <mxGeometry x="10" y="-10" width="60" height="80" as="geometry" />
        </mxCell>
        <mxCell id="tDW0GHBdHRXGgH65T0RM-148" value="N" style="text;html=1;align=center;verticalAlign=middle;resizable=0;points=[];autosize=1;strokeColor=none;fillColor=none;fontSize=22;" parent="tDW0GHBdHRXGgH65T0RM-150" vertex="1">
          <mxGeometry x="20" y="20" width="40" height="40" as="geometry" />
        </mxCell>
        <mxCell id="tDW0GHBdHRXGgH65T0RM-178" value="" style="group" parent="1" vertex="1" connectable="0">
          <mxGeometry x="1106.83" y="1210" width="317.8899999999999" height="219.9999999999999" as="geometry" />
        </mxCell>
        <mxCell id="tDW0GHBdHRXGgH65T0RM-170" value="&lt;font face=&quot;Arial&quot;&gt;&lt;span style=&quot;font-size: 13.3333px;&quot;&gt;CPF&lt;/span&gt;&lt;/font&gt;" style="text;html=1;strokeColor=none;fillColor=none;align=right;verticalAlign=middle;whiteSpace=wrap;rounded=0;rotation=-90;" parent="tDW0GHBdHRXGgH65T0RM-178" vertex="1">
          <mxGeometry x="58.940000000000055" y="129.9999999999999" width="160" height="20" as="geometry" />
        </mxCell>
        <mxCell id="tDW0GHBdHRXGgH65T0RM-171" value="&lt;span style=&quot;font-family: Arial; font-size: 13.3333px;&quot;&gt;Número do CRECI&lt;/span&gt;" style="text;html=1;strokeColor=none;fillColor=none;align=right;verticalAlign=middle;whiteSpace=wrap;rounded=0;rotation=-90;" parent="tDW0GHBdHRXGgH65T0RM-178" vertex="1">
          <mxGeometry x="78.94000000000005" y="129.9999999999999" width="160" height="20" as="geometry" />
        </mxCell>
        <mxCell id="tDW0GHBdHRXGgH65T0RM-172" value="&lt;span style=&quot;font-family: Arial; font-size: 13.3333px;&quot;&gt;Data de Admissão&lt;/span&gt;" style="text;html=1;strokeColor=none;fillColor=none;align=right;verticalAlign=middle;whiteSpace=wrap;rounded=0;rotation=-90;" parent="tDW0GHBdHRXGgH65T0RM-178" vertex="1">
          <mxGeometry x="98.94000000000005" y="129.9999999999999" width="160" height="20" as="geometry" />
        </mxCell>
        <mxCell id="tDW0GHBdHRXGgH65T0RM-173" style="edgeStyle=none;rounded=0;sketch=0;jumpStyle=none;orthogonalLoop=1;jettySize=auto;html=1;entryX=0.437;entryY=0.987;entryDx=0;entryDy=0;entryPerimeter=0;shadow=0;strokeWidth=2;fontSize=22;startArrow=oval;startFill=1;endArrow=none;endFill=0;startSize=6;endSize=9;sourcePerimeterSpacing=3;targetPerimeterSpacing=11;" parent="tDW0GHBdHRXGgH65T0RM-178" source="tDW0GHBdHRXGgH65T0RM-170" target="tDW0GHBdHRXGgH65T0RM-143" edge="1">
          <mxGeometry relative="1" as="geometry" />
        </mxCell>
        <mxCell id="tDW0GHBdHRXGgH65T0RM-174" style="edgeStyle=none;rounded=0;sketch=0;jumpStyle=none;orthogonalLoop=1;jettySize=auto;html=1;entryX=0.5;entryY=1;entryDx=0;entryDy=0;shadow=0;strokeWidth=2;fontSize=22;startArrow=oval;startFill=0;endArrow=none;endFill=0;startSize=6;endSize=9;sourcePerimeterSpacing=3;targetPerimeterSpacing=11;" parent="tDW0GHBdHRXGgH65T0RM-178" source="tDW0GHBdHRXGgH65T0RM-171" target="tDW0GHBdHRXGgH65T0RM-143" edge="1">
          <mxGeometry relative="1" as="geometry" />
        </mxCell>
        <mxCell id="tDW0GHBdHRXGgH65T0RM-175" style="edgeStyle=none;rounded=0;sketch=0;jumpStyle=none;orthogonalLoop=1;jettySize=auto;html=1;entryX=0.563;entryY=1;entryDx=0;entryDy=0;entryPerimeter=0;shadow=0;strokeWidth=2;fontSize=22;startArrow=oval;startFill=0;endArrow=none;endFill=0;startSize=6;endSize=9;sourcePerimeterSpacing=3;targetPerimeterSpacing=11;" parent="tDW0GHBdHRXGgH65T0RM-178" source="tDW0GHBdHRXGgH65T0RM-172" target="tDW0GHBdHRXGgH65T0RM-143" edge="1">
          <mxGeometry relative="1" as="geometry" />
        </mxCell>
        <mxCell id="tDW0GHBdHRXGgH65T0RM-143" value="&lt;h1&gt;Corretores de Imobiliárias&lt;/h1&gt;" style="text;html=1;strokeColor=#9673a6;fillColor=#e1d5e7;spacing=5;spacingTop=-20;whiteSpace=wrap;overflow=hidden;rounded=0;align=center;" parent="tDW0GHBdHRXGgH65T0RM-178" vertex="1">
          <mxGeometry width="317.89" height="40" as="geometry" />
        </mxCell>
        <mxCell id="tDW0GHBdHRXGgH65T0RM-240" value="" style="group" parent="1" vertex="1" connectable="0">
          <mxGeometry x="747.8899999999999" y="1210" width="317.89" height="220" as="geometry" />
        </mxCell>
        <mxCell id="tDW0GHBdHRXGgH65T0RM-165" value="&lt;font face=&quot;Arial&quot;&gt;&lt;span style=&quot;font-size: 13.3333px;&quot;&gt;CPF&lt;/span&gt;&lt;/font&gt;" style="text;html=1;strokeColor=none;fillColor=none;align=right;verticalAlign=middle;whiteSpace=wrap;rounded=0;rotation=-90;" parent="tDW0GHBdHRXGgH65T0RM-240" vertex="1">
          <mxGeometry x="68.94000000000005" y="130" width="160" height="20" as="geometry" />
        </mxCell>
        <mxCell id="tDW0GHBdHRXGgH65T0RM-167" value="&lt;font face=&quot;Arial&quot;&gt;&lt;span style=&quot;font-size: 13.3333px;&quot;&gt;Estado Civil&lt;/span&gt;&lt;/font&gt;" style="text;html=1;strokeColor=none;fillColor=none;align=right;verticalAlign=middle;whiteSpace=wrap;rounded=0;rotation=-90;" parent="tDW0GHBdHRXGgH65T0RM-240" vertex="1">
          <mxGeometry x="88.94000000000005" y="130" width="160" height="20" as="geometry" />
        </mxCell>
        <mxCell id="tDW0GHBdHRXGgH65T0RM-237" style="edgeStyle=none;rounded=0;sketch=0;jumpStyle=none;orthogonalLoop=1;jettySize=auto;html=1;entryX=0.47;entryY=0.984;entryDx=0;entryDy=0;entryPerimeter=0;shadow=0;strokeWidth=2;fontSize=22;startArrow=oval;startFill=1;endArrow=none;endFill=0;startSize=6;endSize=5;sourcePerimeterSpacing=3;targetPerimeterSpacing=6;" parent="tDW0GHBdHRXGgH65T0RM-240" source="tDW0GHBdHRXGgH65T0RM-165" target="tDW0GHBdHRXGgH65T0RM-138" edge="1">
          <mxGeometry relative="1" as="geometry" />
        </mxCell>
        <mxCell id="tDW0GHBdHRXGgH65T0RM-239" style="edgeStyle=none;rounded=0;sketch=0;jumpStyle=none;orthogonalLoop=1;jettySize=auto;html=1;entryX=0.533;entryY=0.988;entryDx=0;entryDy=0;entryPerimeter=0;shadow=0;strokeWidth=2;fontSize=22;startArrow=oval;startFill=0;endArrow=none;endFill=0;startSize=6;endSize=5;sourcePerimeterSpacing=3;targetPerimeterSpacing=6;" parent="tDW0GHBdHRXGgH65T0RM-240" source="tDW0GHBdHRXGgH65T0RM-167" target="tDW0GHBdHRXGgH65T0RM-138" edge="1">
          <mxGeometry relative="1" as="geometry" />
        </mxCell>
        <mxCell id="tDW0GHBdHRXGgH65T0RM-138" value="&lt;h1&gt;Proprietários de Imóveis&lt;/h1&gt;" style="text;html=1;strokeColor=#9673a6;fillColor=#e1d5e7;spacing=5;spacingTop=-20;whiteSpace=wrap;overflow=hidden;rounded=0;align=center;" parent="tDW0GHBdHRXGgH65T0RM-240" vertex="1">
          <mxGeometry width="317.89" height="40" as="geometry" />
        </mxCell>
        <mxCell id="tDW0GHBdHRXGgH65T0RM-176" value="" style="group" parent="1" vertex="1" connectable="0">
          <mxGeometry x="390.005" y="1210" width="317.88999999999993" height="219.9999999999999" as="geometry" />
        </mxCell>
        <mxCell id="tDW0GHBdHRXGgH65T0RM-157" value="" style="group;rotation=-90;" parent="tDW0GHBdHRXGgH65T0RM-176" vertex="1" connectable="0">
          <mxGeometry x="78.945" y="109.99999999999989" width="160" height="60" as="geometry" />
        </mxCell>
        <mxCell id="tDW0GHBdHRXGgH65T0RM-104" value="&lt;font face=&quot;Arial&quot;&gt;&lt;span style=&quot;font-size: 13.3333px;&quot;&gt;Profissão&lt;/span&gt;&lt;/font&gt;" style="text;html=1;strokeColor=none;fillColor=none;align=right;verticalAlign=middle;whiteSpace=wrap;rounded=0;rotation=-90;" parent="tDW0GHBdHRXGgH65T0RM-157" vertex="1">
          <mxGeometry y="20" width="160" height="20" as="geometry" />
        </mxCell>
        <mxCell id="tDW0GHBdHRXGgH65T0RM-106" value="&lt;div style=&quot;&quot;&gt;&lt;span style=&quot;background-color: initial; font-size: 13.3333px;&quot;&gt;&lt;font face=&quot;Arial&quot;&gt;Lista de preferências&lt;/font&gt;&lt;/span&gt;&lt;/div&gt;" style="text;html=1;strokeColor=none;fillColor=none;align=right;verticalAlign=middle;whiteSpace=wrap;rounded=0;rotation=-90;" parent="tDW0GHBdHRXGgH65T0RM-157" vertex="1">
          <mxGeometry x="20" y="20" width="160" height="20" as="geometry" />
        </mxCell>
        <mxCell id="tDW0GHBdHRXGgH65T0RM-154" value="&lt;font face=&quot;Arial&quot;&gt;&lt;span style=&quot;font-size: 13.3333px;&quot;&gt;CPF&lt;/span&gt;&lt;/font&gt;" style="text;html=1;strokeColor=none;fillColor=none;align=right;verticalAlign=middle;whiteSpace=wrap;rounded=0;rotation=-90;" parent="tDW0GHBdHRXGgH65T0RM-157" vertex="1">
          <mxGeometry x="-20" y="20" width="160" height="20" as="geometry" />
        </mxCell>
        <mxCell id="tDW0GHBdHRXGgH65T0RM-158" style="edgeStyle=none;rounded=0;sketch=0;jumpStyle=none;orthogonalLoop=1;jettySize=auto;html=1;entryX=0.437;entryY=1.012;entryDx=0;entryDy=0;entryPerimeter=0;shadow=0;strokeWidth=2;fontSize=22;startArrow=oval;startFill=1;endArrow=none;endFill=0;startSize=6;endSize=9;sourcePerimeterSpacing=3;targetPerimeterSpacing=11;" parent="tDW0GHBdHRXGgH65T0RM-176" source="tDW0GHBdHRXGgH65T0RM-154" target="tDW0GHBdHRXGgH65T0RM-121" edge="1">
          <mxGeometry relative="1" as="geometry" />
        </mxCell>
        <mxCell id="tDW0GHBdHRXGgH65T0RM-161" style="edgeStyle=none;rounded=0;sketch=0;jumpStyle=none;orthogonalLoop=1;jettySize=auto;html=1;entryX=0.5;entryY=1;entryDx=0;entryDy=0;shadow=0;strokeWidth=2;fontSize=22;startArrow=oval;startFill=0;endArrow=none;endFill=0;startSize=6;endSize=9;sourcePerimeterSpacing=3;targetPerimeterSpacing=11;" parent="tDW0GHBdHRXGgH65T0RM-176" source="tDW0GHBdHRXGgH65T0RM-104" target="tDW0GHBdHRXGgH65T0RM-121" edge="1">
          <mxGeometry relative="1" as="geometry" />
        </mxCell>
        <mxCell id="tDW0GHBdHRXGgH65T0RM-162" style="edgeStyle=none;rounded=0;sketch=0;jumpStyle=none;orthogonalLoop=1;jettySize=auto;html=1;entryX=0.563;entryY=1.03;entryDx=0;entryDy=0;entryPerimeter=0;shadow=0;strokeWidth=2;fontSize=22;startArrow=oval;startFill=0;endArrow=none;endFill=0;startSize=6;endSize=9;sourcePerimeterSpacing=3;targetPerimeterSpacing=11;" parent="tDW0GHBdHRXGgH65T0RM-176" source="tDW0GHBdHRXGgH65T0RM-106" target="tDW0GHBdHRXGgH65T0RM-121" edge="1">
          <mxGeometry relative="1" as="geometry" />
        </mxCell>
        <mxCell id="tDW0GHBdHRXGgH65T0RM-121" value="&lt;h1&gt;Compradores e Locatários&lt;/h1&gt;" style="text;html=1;strokeColor=#9673a6;fillColor=#e1d5e7;spacing=5;spacingTop=-20;whiteSpace=wrap;overflow=hidden;rounded=0;align=center;" parent="tDW0GHBdHRXGgH65T0RM-176" vertex="1">
          <mxGeometry width="317.89" height="40" as="geometry" />
        </mxCell>
        <mxCell id="AmZP4e-YaUcixo_ywfhp-4" style="rounded=0;orthogonalLoop=1;jettySize=auto;html=1;exitX=0.5;exitY=1;exitDx=0;exitDy=0;entryX=0;entryY=0.5;entryDx=0;entryDy=0;endArrow=none;endFill=0;strokeWidth=2;" edge="1" parent="1" source="AmZP4e-YaUcixo_ywfhp-3" target="tDW0GHBdHRXGgH65T0RM-96">
          <mxGeometry relative="1" as="geometry">
            <Array as="points">
              <mxPoint x="633" y="940" />
            </Array>
          </mxGeometry>
        </mxCell>
        <mxCell id="AmZP4e-YaUcixo_ywfhp-19" value="1" style="text;html=1;align=center;verticalAlign=middle;resizable=0;points=[];autosize=1;strokeColor=none;fillColor=none;fontStyle=1;fontSize=16;" vertex="1" parent="1">
          <mxGeometry x="1687.31" y="680" width="30" height="30" as="geometry" />
        </mxCell>
        <mxCell id="AmZP4e-YaUcixo_ywfhp-30" style="edgeStyle=none;rounded=0;jumpSize=0;orthogonalLoop=1;jettySize=auto;html=1;entryX=0;entryY=0.5;entryDx=0;entryDy=0;strokeWidth=2;fontSize=16;startArrow=none;startFill=0;endArrow=none;endFill=0;startSize=0;endSize=0;sourcePerimeterSpacing=0;targetPerimeterSpacing=0;" edge="1" parent="1" source="AmZP4e-YaUcixo_ywfhp-25" target="AmZP4e-YaUcixo_ywfhp-22">
          <mxGeometry relative="1" as="geometry">
            <Array as="points">
              <mxPoint x="1370" y="444" />
            </Array>
          </mxGeometry>
        </mxCell>
        <mxCell id="AmZP4e-YaUcixo_ywfhp-25" value="&lt;h1&gt;Entidade fraca&lt;/h1&gt;&lt;p&gt;Sua existência depende de um imóvel&lt;/p&gt;" style="text;html=1;strokeColor=#666666;fillColor=#f5f5f5;spacing=5;spacingTop=-20;whiteSpace=wrap;overflow=hidden;rounded=0;fontSize=16;fontColor=#333333;" vertex="1" parent="1">
          <mxGeometry x="1255" y="200" width="231" height="117.07" as="geometry" />
        </mxCell>
        <mxCell id="AmZP4e-YaUcixo_ywfhp-15" value="" style="shape=flexArrow;endArrow=none;startArrow=none;html=1;rounded=0;strokeWidth=2;startSize=0;endSize=0;sourcePerimeterSpacing=0;targetPerimeterSpacing=0;jumpSize=0;startFill=0;endFill=0;startWidth=20;exitX=0.5;exitY=1;exitDx=0;exitDy=0;entryX=0.5;entryY=0;entryDx=0;entryDy=0;" edge="1" parent="1" source="AmZP4e-YaUcixo_ywfhp-22" target="AmZP4e-YaUcixo_ywfhp-10">
          <mxGeometry width="100" height="100" relative="1" as="geometry">
            <mxPoint x="1460" y="560" as="sourcePoint" />
            <mxPoint x="1680" y="630" as="targetPoint" />
          </mxGeometry>
        </mxCell>
        <mxCell id="AmZP4e-YaUcixo_ywfhp-27" value="" style="group" vertex="1" connectable="0" parent="1">
          <mxGeometry x="1475" y="189.9999999999999" width="150" height="278.52000000000015" as="geometry" />
        </mxCell>
        <mxCell id="tDW0GHBdHRXGgH65T0RM-26" style="rounded=0;orthogonalLoop=1;jettySize=auto;html=1;endArrow=none;endFill=0;startArrow=oval;startFill=1;strokeWidth=2;targetPerimeterSpacing=6;sourcePerimeterSpacing=5;jumpStyle=none;sketch=0;shadow=0;align=left;" parent="AmZP4e-YaUcixo_ywfhp-27" source="tDW0GHBdHRXGgH65T0RM-27" edge="1">
          <mxGeometry relative="1" as="geometry">
            <mxPoint x="37.65000000000009" y="240.3500000000002" as="targetPoint" />
          </mxGeometry>
        </mxCell>
        <mxCell id="tDW0GHBdHRXGgH65T0RM-27" value="&lt;span style=&quot;font-family: Arial; font-size: 13.3333px;&quot;&gt;ID&lt;br&gt;&lt;/span&gt;" style="text;html=1;strokeColor=none;fillColor=none;align=left;verticalAlign=middle;whiteSpace=wrap;rounded=0;rotation=-90;" parent="AmZP4e-YaUcixo_ywfhp-27" vertex="1">
          <mxGeometry x="-67.34999999999991" y="93.35000000000014" width="206.7" height="20" as="geometry" />
        </mxCell>
        <mxCell id="tDW0GHBdHRXGgH65T0RM-28" style="edgeStyle=none;rounded=0;sketch=0;jumpStyle=none;orthogonalLoop=1;jettySize=auto;html=1;shadow=0;strokeWidth=2;startArrow=oval;startFill=0;endArrow=none;endFill=0;sourcePerimeterSpacing=5;targetPerimeterSpacing=6;align=left;" parent="AmZP4e-YaUcixo_ywfhp-27" source="tDW0GHBdHRXGgH65T0RM-29" edge="1">
          <mxGeometry relative="1" as="geometry">
            <mxPoint x="59.65000000000009" y="240.3500000000002" as="targetPoint" />
          </mxGeometry>
        </mxCell>
        <mxCell id="tDW0GHBdHRXGgH65T0RM-29" value="&lt;span style=&quot;font-family: Arial; font-size: 13.3333px; text-align: center;&quot;&gt;área construída&lt;/span&gt;&lt;span style=&quot;font-family: Arial; font-size: 13.3333px;&quot;&gt;&lt;br&gt;&lt;/span&gt;" style="text;html=1;strokeColor=none;fillColor=none;align=left;verticalAlign=middle;whiteSpace=wrap;rounded=0;rotation=-90;" parent="AmZP4e-YaUcixo_ywfhp-27" vertex="1">
          <mxGeometry x="-44.34999999999991" y="93.35000000000014" width="206.7" height="20" as="geometry" />
        </mxCell>
        <mxCell id="tDW0GHBdHRXGgH65T0RM-30" style="edgeStyle=none;rounded=0;sketch=0;jumpStyle=none;orthogonalLoop=1;jettySize=auto;html=1;shadow=0;strokeWidth=2;startArrow=oval;startFill=0;endArrow=none;endFill=0;sourcePerimeterSpacing=5;targetPerimeterSpacing=6;align=left;" parent="AmZP4e-YaUcixo_ywfhp-27" source="tDW0GHBdHRXGgH65T0RM-31" edge="1">
          <mxGeometry relative="1" as="geometry">
            <mxPoint x="80.65000000000009" y="240.3500000000002" as="targetPoint" />
          </mxGeometry>
        </mxCell>
        <mxCell id="tDW0GHBdHRXGgH65T0RM-31" value="&lt;span style=&quot;font-family: Arial; font-size: 13.3333px; text-align: center;&quot;&gt;padrão da construção&lt;/span&gt;&lt;span style=&quot;font-family: Arial; font-size: 13.3333px;&quot;&gt;&lt;br&gt;&lt;/span&gt;" style="text;html=1;strokeColor=none;fillColor=none;align=left;verticalAlign=middle;whiteSpace=wrap;rounded=0;rotation=-90;" parent="AmZP4e-YaUcixo_ywfhp-27" vertex="1">
          <mxGeometry x="-23.34999999999991" y="93.35000000000014" width="206.7" height="20" as="geometry" />
        </mxCell>
        <mxCell id="tDW0GHBdHRXGgH65T0RM-32" style="edgeStyle=none;rounded=0;sketch=0;jumpStyle=none;orthogonalLoop=1;jettySize=auto;html=1;shadow=0;strokeWidth=2;startArrow=oval;startFill=0;endArrow=none;endFill=0;sourcePerimeterSpacing=5;targetPerimeterSpacing=6;align=left;" parent="AmZP4e-YaUcixo_ywfhp-27" source="tDW0GHBdHRXGgH65T0RM-33" edge="1">
          <mxGeometry relative="1" as="geometry">
            <mxPoint x="102.65000000000009" y="240.3500000000002" as="targetPoint" />
          </mxGeometry>
        </mxCell>
        <mxCell id="tDW0GHBdHRXGgH65T0RM-33" value="&lt;span style=&quot;font-family: Arial; font-size: 13.3333px; text-align: center;&quot;&gt;habitada ou não&lt;/span&gt;&lt;span style=&quot;font-family: Arial; font-size: 13.3333px;&quot;&gt;&lt;br&gt;&lt;/span&gt;" style="text;html=1;strokeColor=none;fillColor=none;align=left;verticalAlign=middle;whiteSpace=wrap;rounded=0;rotation=-90;" parent="AmZP4e-YaUcixo_ywfhp-27" vertex="1">
          <mxGeometry x="-1.349999999999909" y="93.35000000000014" width="206.7" height="20" as="geometry" />
        </mxCell>
        <mxCell id="tDW0GHBdHRXGgH65T0RM-34" style="edgeStyle=none;rounded=0;sketch=0;jumpStyle=none;orthogonalLoop=1;jettySize=auto;html=1;shadow=0;strokeWidth=2;startArrow=oval;startFill=0;endArrow=none;endFill=0;sourcePerimeterSpacing=5;targetPerimeterSpacing=6;align=left;" parent="AmZP4e-YaUcixo_ywfhp-27" source="tDW0GHBdHRXGgH65T0RM-35" edge="1">
          <mxGeometry relative="1" as="geometry">
            <mxPoint x="123.65000000000009" y="240.3500000000002" as="targetPoint" />
          </mxGeometry>
        </mxCell>
        <mxCell id="tDW0GHBdHRXGgH65T0RM-35" value="&lt;span style=&quot;text-align: center;&quot;&gt;destinação - comercial ou residencial&lt;/span&gt;&lt;span style=&quot;font-family: Arial; font-size: 13.3333px;&quot;&gt;&lt;br&gt;&lt;/span&gt;" style="text;html=1;strokeColor=none;fillColor=none;align=left;verticalAlign=middle;whiteSpace=wrap;rounded=0;rotation=-90;" parent="AmZP4e-YaUcixo_ywfhp-27" vertex="1">
          <mxGeometry x="19.65000000000009" y="93.35000000000014" width="206.7" height="20" as="geometry" />
        </mxCell>
        <mxCell id="AmZP4e-YaUcixo_ywfhp-23" value="" style="group" vertex="1" connectable="0" parent="AmZP4e-YaUcixo_ywfhp-27">
          <mxGeometry y="228.52000000000015" width="150" height="50" as="geometry" />
        </mxCell>
        <mxCell id="AmZP4e-YaUcixo_ywfhp-24" value="" style="group" vertex="1" connectable="0" parent="AmZP4e-YaUcixo_ywfhp-23">
          <mxGeometry width="150" height="50" as="geometry" />
        </mxCell>
        <mxCell id="AmZP4e-YaUcixo_ywfhp-22" value="&lt;h1&gt;&lt;br&gt;&lt;/h1&gt;" style="text;html=1;strokeColor=#6c8ebf;fillColor=#dae8fc;spacing=5;spacingTop=-20;whiteSpace=wrap;overflow=hidden;rounded=0;align=center;" vertex="1" parent="AmZP4e-YaUcixo_ywfhp-24">
          <mxGeometry width="150" height="50" as="geometry" />
        </mxCell>
        <mxCell id="tDW0GHBdHRXGgH65T0RM-13" value="&lt;h1&gt;Edificações&lt;/h1&gt;" style="text;html=1;strokeColor=#6c8ebf;fillColor=default;spacing=5;spacingTop=-20;whiteSpace=wrap;overflow=hidden;rounded=0;align=center;" parent="AmZP4e-YaUcixo_ywfhp-24" vertex="1">
          <mxGeometry x="4.411764705882353" y="5" width="141.1764705882353" height="40" as="geometry" />
        </mxCell>
        <mxCell id="AmZP4e-YaUcixo_ywfhp-28" value="" style="group" vertex="1" connectable="0" parent="1">
          <mxGeometry x="1550" y="463.52" width="60" height="30" as="geometry" />
        </mxCell>
        <mxCell id="AmZP4e-YaUcixo_ywfhp-16" value="&lt;b style=&quot;font-size: 16px;&quot;&gt;(0, 1)&lt;/b&gt;" style="text;html=1;align=center;verticalAlign=middle;resizable=0;points=[];autosize=1;strokeColor=none;fillColor=none;fontSize=16;" vertex="1" parent="AmZP4e-YaUcixo_ywfhp-28">
          <mxGeometry width="60" height="30" as="geometry" />
        </mxCell>
        <mxCell id="AmZP4e-YaUcixo_ywfhp-32" value="" style="group" vertex="1" connectable="0" parent="1">
          <mxGeometry x="1180" y="566" width="120" height="213.24" as="geometry" />
        </mxCell>
        <mxCell id="AmZP4e-YaUcixo_ywfhp-33" value="Tipo do Endereço" style="text;html=1;strokeColor=none;fillColor=none;align=center;verticalAlign=middle;whiteSpace=wrap;rounded=0;rotation=-90;" vertex="1" parent="AmZP4e-YaUcixo_ywfhp-32">
          <mxGeometry x="40" y="35" width="100" height="30" as="geometry" />
        </mxCell>
        <mxCell id="AmZP4e-YaUcixo_ywfhp-34" value="Imóvel localizado num Endereço" style="rhombus;whiteSpace=wrap;html=1;fillColor=#ffe6cc;strokeColor=#d79b00;" vertex="1" parent="AmZP4e-YaUcixo_ywfhp-32">
          <mxGeometry y="93.24000000000001" width="120" height="120" as="geometry" />
        </mxCell>
        <mxCell id="AmZP4e-YaUcixo_ywfhp-35" style="edgeStyle=orthogonalEdgeStyle;rounded=0;orthogonalLoop=1;jettySize=auto;html=1;exitX=1;exitY=0;exitDx=0;exitDy=0;entryX=0;entryY=0.5;entryDx=0;entryDy=0;endArrow=oval;endFill=0;sourcePerimeterSpacing=0;targetPerimeterSpacing=0;strokeWidth=2;startSize=6;endSize=6;" edge="1" parent="AmZP4e-YaUcixo_ywfhp-32" source="AmZP4e-YaUcixo_ywfhp-34" target="AmZP4e-YaUcixo_ywfhp-33">
          <mxGeometry relative="1" as="geometry" />
        </mxCell>
        <mxCell id="AmZP4e-YaUcixo_ywfhp-36" style="edgeStyle=none;rounded=0;jumpSize=0;orthogonalLoop=1;jettySize=auto;html=1;entryX=1;entryY=0.5;entryDx=0;entryDy=0;strokeWidth=2;fontSize=16;startArrow=none;startFill=0;endArrow=none;endFill=0;startSize=0;endSize=0;sourcePerimeterSpacing=0;targetPerimeterSpacing=0;" edge="1" parent="1" source="DJ1_3ebVLV-oCw10OSI2-1" target="AmZP4e-YaUcixo_ywfhp-34">
          <mxGeometry relative="1" as="geometry" />
        </mxCell>
        <mxCell id="AmZP4e-YaUcixo_ywfhp-37" style="edgeStyle=none;rounded=0;jumpSize=0;orthogonalLoop=1;jettySize=auto;html=1;strokeWidth=2;fontSize=16;startArrow=none;startFill=0;endArrow=none;endFill=0;startSize=0;endSize=0;sourcePerimeterSpacing=0;targetPerimeterSpacing=0;entryX=1;entryY=0.5;entryDx=0;entryDy=0;" edge="1" parent="1" source="AmZP4e-YaUcixo_ywfhp-34" target="tDW0GHBdHRXGgH65T0RM-52">
          <mxGeometry relative="1" as="geometry">
            <mxPoint x="910" y="590" as="targetPoint" />
          </mxGeometry>
        </mxCell>
        <mxCell id="AmZP4e-YaUcixo_ywfhp-7" value="Tipo do Endereço" style="text;html=1;strokeColor=none;fillColor=none;align=center;verticalAlign=middle;whiteSpace=wrap;rounded=0;rotation=0;" vertex="1" parent="1">
          <mxGeometry x="470" y="785" width="100" height="30" as="geometry" />
        </mxCell>
        <mxCell id="AmZP4e-YaUcixo_ywfhp-8" style="rounded=0;orthogonalLoop=1;jettySize=auto;html=1;exitX=0;exitY=0;exitDx=0;exitDy=0;endArrow=oval;endFill=0;sourcePerimeterSpacing=0;targetPerimeterSpacing=0;strokeWidth=2;startSize=6;endSize=6;strokeColor=default;entryX=1;entryY=0.5;entryDx=0;entryDy=0;" edge="1" parent="1" source="AmZP4e-YaUcixo_ywfhp-3" target="AmZP4e-YaUcixo_ywfhp-7">
          <mxGeometry relative="1" as="geometry">
            <mxPoint x="490" y="820" as="targetPoint" />
          </mxGeometry>
        </mxCell>
        <mxCell id="AmZP4e-YaUcixo_ywfhp-3" value="Pessoa possui endereço" style="rhombus;whiteSpace=wrap;html=1;fillColor=#ffe6cc;strokeColor=#d79b00;" vertex="1" parent="1">
          <mxGeometry x="572.9999999999999" y="770" width="120" height="120" as="geometry" />
        </mxCell>
      </root>
    </mxGraphModel>
  </diagram>
</mxfile>
